<svg version="1.1" id="Layer_1" xmlns="http://www.w3.org/2000/svg" xmlns:xlink="http://www.w3.org/1999/xlink" x="0px" y="0px"
	 width="100%" viewBox="0 0 1024 1024" enable-background="new 0 0 1024 1024" xml:space="preserve">
<path fill="#FFFFFF" opacity="1.000000" stroke="none" 
	d="
M1.000000,581.000000 
	C1.000000,506.312439 1.000000,431.624878 1.176393,356.690491 
	C2.125732,358.153412 2.869052,359.619781 4.782376,357.334229 
	C6.884335,354.823334 9.946140,354.075470 12.920308,354.342590 
	C17.844091,354.784790 20.927134,352.716705 23.863619,348.936859 
	C28.540621,342.916656 32.990234,336.097412 40.395290,333.357941 
	C47.929588,330.570648 54.941677,327.049835 61.995918,323.290710 
	C68.034271,320.072937 72.359299,315.954926 75.672981,310.062531 
	C84.086441,295.101776 93.168182,280.590393 105.949150,268.777344 
	C109.603210,265.399994 113.618935,261.985870 116.018089,257.764160 
	C121.771767,247.639633 127.753952,237.634064 132.966858,227.181427 
	C138.548264,215.989944 145.434586,205.649231 154.558319,196.787781 
	C170.595047,181.212051 187.316452,166.498856 205.392181,153.325455 
	C207.924026,151.480270 210.214584,149.199234 212.266541,146.818069 
	C222.284012,135.193481 234.692657,127.299210 248.943832,121.735672 
	C262.633026,116.391525 277.109100,113.673935 290.777954,108.329414 
	C307.790863,101.677383 325.074066,95.682976 341.888519,88.572159 
	C349.752411,85.246521 358.442963,84.307289 365.778290,79.923096 
	C371.922424,76.250862 378.476746,74.122169 385.393463,72.832573 
	C389.509705,72.065125 393.530151,71.028412 397.317871,69.220787 
	C403.379578,66.327927 409.789307,64.499352 416.338348,63.207035 
	C430.229614,60.465900 444.172638,58.032955 458.142822,55.695782 
	C474.705505,52.924889 491.232239,49.570747 507.088562,43.632423 
	C522.436523,37.884480 537.928833,36.773296 553.408081,43.285919 
	C567.392212,49.169525 582.085205,53.174191 596.150940,58.642475 
	C624.020874,69.477364 652.363586,78.690887 681.357788,85.595619 
	C712.280151,92.959511 737.999268,108.761490 759.497559,131.361450 
	C770.924805,143.374283 783.360413,154.029419 795.843262,164.782837 
	C812.415039,179.058609 828.032654,194.325638 839.931091,212.879532 
	C849.193787,227.323380 858.340820,241.855591 867.050659,256.636414 
	C880.165344,278.892090 893.007202,301.341431 901.653748,325.824951 
	C905.700623,337.284149 908.622192,349.156952 912.982910,360.484589 
	C917.245911,371.558075 921.003601,382.691833 923.739685,394.245483 
	C926.840637,407.339935 924.697937,418.676575 914.476868,427.972168 
	C908.040039,433.826141 906.015503,441.596863 906.372375,449.754761 
	C906.934265,462.599182 908.749634,475.406433 913.164307,487.519592 
	C918.398560,501.881805 918.991394,516.643738 917.289124,531.384888 
	C914.667114,554.090576 916.023438,575.843872 926.894531,596.521484 
	C933.618103,609.310120 936.595459,623.129028 934.978516,637.634460 
	C933.301697,652.676270 935.198303,667.535339 936.447998,682.475159 
	C938.194458,703.352783 935.063171,723.467102 923.882690,741.569153 
	C911.134216,762.209961 893.853516,779.289795 878.445068,797.831543 
	C873.244690,804.089478 866.510986,809.117493 861.598511,815.561768 
	C848.821411,832.322876 833.273438,846.013550 816.251465,858.114014 
	C798.751099,870.554565 780.786682,882.363586 765.289124,897.387329 
	C752.768127,909.525452 738.023438,918.582703 723.361816,927.761780 
	C714.944397,933.031555 705.128601,935.098450 696.366150,939.475769 
	C684.520142,945.393677 672.601379,950.719727 659.200500,951.870361 
	C654.646973,952.261414 650.621826,954.238403 646.558716,956.287048 
	C631.843811,963.706360 617.140503,971.171692 602.187134,978.088562 
	C587.554932,984.856812 571.573669,984.090942 555.996704,984.825623 
	C530.638367,986.021545 505.428986,982.588623 480.137512,981.541687 
	C460.861816,980.743713 442.080536,977.257019 423.820587,971.064941 
	C408.863739,965.992859 393.551605,963.126526 377.736908,963.020630 
	C354.605377,962.865784 331.842896,960.548950 310.199005,951.561646 
	C297.901520,946.455322 284.724609,943.771545 272.722870,937.784485 
	C264.238342,933.552002 256.061584,928.745117 247.189316,925.208923 
	C238.402084,921.706665 229.436142,918.605225 221.081879,913.960938 
	C208.699600,907.077332 196.986465,899.637390 186.554428,889.720337 
	C176.241730,879.916626 164.219528,871.887268 152.106750,864.241577 
	C149.839981,862.810791 147.754013,861.223083 145.736359,859.458679 
	C132.561310,847.937012 122.706787,833.929932 113.480972,819.128113 
	C97.371735,793.282593 85.457710,765.415527 72.432098,738.069214 
	C68.577751,729.977356 67.842560,721.243530 69.408234,712.624695 
	C70.884933,704.495728 70.626205,696.382324 71.050140,688.247498 
	C71.922020,671.517090 66.410004,657.896118 53.602310,646.689270 
	C48.973755,642.639160 44.186512,638.342468 40.558445,633.031128 
	C32.185661,620.773743 26.175364,607.553406 22.714577,593.114990 
	C21.021322,586.050781 18.840549,579.302979 10.275582,577.374268 
	C7.836248,576.825012 5.324389,577.853271 3.353749,576.292114 
	C1.613177,577.686462 1.981285,579.655029 1.000000,581.000000 
M595.632935,215.006287 
	C577.616943,209.512955 559.352539,205.252350 540.596619,203.087494 
	C508.127045,199.339752 475.844818,200.078476 443.732788,206.379242 
	C382.073181,218.477615 328.452332,246.116623 283.665375,290.225677 
	C224.350677,348.642578 193.529205,419.943481 189.515808,502.871704 
	C188.205826,529.939453 190.767563,556.881348 197.112152,583.198608 
	C219.760452,677.143555 273.815430,747.256348 359.219482,792.414612 
	C418.170013,823.585388 481.428802,833.108948 547.233459,824.326599 
	C577.515320,820.285217 606.636719,811.337524 634.467773,798.267029 
	C700.406555,767.299622 749.407593,719.016785 782.682922,654.492432 
	C795.041687,630.527344 803.300964,605.063660 809.573608,578.909851 
	C810.014465,577.071472 809.958008,574.823120 812.664673,573.992554 
	C813.153992,574.544617 814.026123,575.072144 814.152649,575.740723 
	C815.754150,584.203979 820.912231,589.079773 829.163696,590.948425 
	C829.473511,591.018555 829.736572,591.282410 830.029907,591.440063 
	C837.139465,595.260742 847.293091,592.688904 851.418213,585.755005 
	C856.717651,576.847046 861.317017,567.631836 862.852112,557.174500 
	C863.748169,551.070190 865.961243,545.198364 866.972412,539.172302 
	C871.456177,512.453430 870.245972,487.176331 846.888733,468.190674 
	C841.969604,464.192261 839.612000,464.433838 835.897278,469.346069 
	C829.536865,477.757202 821.354004,484.968353 819.057129,495.949524 
	C819.016602,496.143585 818.507935,496.239716 817.089600,496.932617 
	C800.557922,358.255249 729.667236,262.139099 595.632935,215.006287 
z"/>
<path fill="#FFFFFF" opacity="1.000000" stroke="none" 
	d="
M514.811890,456.942505 
	C528.375183,433.526611 548.553589,421.872314 575.081543,420.555389 
	C588.820496,419.873352 602.316467,421.509644 615.742737,423.986847 
	C621.235596,425.000275 626.704712,424.444550 632.179504,424.541229 
	C635.376770,424.597717 636.537842,425.724701 636.568848,428.966187 
	C636.710449,443.793732 637.093018,458.618835 637.279602,473.446198 
	C637.304260,475.406036 638.235718,478.319702 635.052612,478.691956 
	C631.510864,479.106232 631.932251,476.055603 631.617371,473.836121 
	C628.545715,452.184387 612.781250,437.355438 590.857971,435.178253 
	C573.915527,433.495758 558.334351,435.848114 545.532166,448.412781 
	C524.594727,468.961639 525.031189,502.687592 547.528625,521.457764 
	C569.397949,539.703857 592.074341,556.984985 614.458923,574.610291 
	C629.920593,586.784668 645.687927,598.681274 656.981934,615.143188 
	C676.802795,644.033691 682.836548,675.250183 671.911865,709.078369 
	C670.279785,714.132141 670.444336,714.562073 675.653870,714.660339 
	C679.317383,714.729370 682.984192,714.619690 686.649536,714.592896 
	C688.217590,714.581421 690.154846,713.776794 690.510498,716.386475 
	C690.842224,718.820374 689.178528,719.664368 687.324402,720.107117 
	C681.498413,721.498474 675.661011,722.871094 669.670288,723.374695 
	C666.908875,723.606934 664.585938,724.372131 662.884155,726.880798 
	C640.850464,759.359436 609.245178,771.948608 571.065796,771.582642 
	C544.647827,771.329407 520.706421,764.574524 500.562103,746.941284 
	C483.675507,732.159607 475.348907,712.814941 472.724030,690.986389 
	C469.619904,665.172180 477.726807,642.378967 493.150177,621.957581 
	C495.648438,618.649719 495.568970,616.529541 492.759460,613.430481 
	C463.213745,580.839844 433.829987,548.102478 404.357239,515.445496 
	C398.105469,508.518341 391.861847,501.525757 382.916595,497.852966 
	C381.076599,497.097534 380.484985,495.663544 380.908264,493.807343 
	C381.411255,491.601898 383.275787,491.761230 384.905334,491.711090 
	C394.880707,491.403870 404.882812,492.248016 414.830414,490.682007 
	C430.887695,488.154175 446.056000,483.746216 457.822205,471.580994 
	C468.230957,460.819214 472.269806,447.317352 473.437500,432.999603 
	C474.693298,417.601807 473.050018,402.367432 466.961517,387.933167 
	C458.524078,367.930115 443.913910,356.514832 421.700958,356.212769 
	C405.539551,355.993011 389.372955,356.159637 373.211395,355.946350 
	C368.507446,355.884277 367.280701,357.930237 367.302246,362.308899 
	C367.434204,389.137787 367.355713,415.967682 367.356934,442.797241 
	C367.359467,499.122650 367.358948,555.448059 367.379913,611.773499 
	C367.385742,627.444702 377.634460,638.486572 393.159607,640.034790 
	C395.669525,640.285034 400.429901,638.702881 399.974823,643.365601 
	C399.588409,647.324463 395.310059,645.352234 392.867615,645.366394 
	C366.538879,645.518982 340.208893,645.460938 313.879272,645.459839 
	C312.546143,645.459839 311.200500,645.568542 309.882812,645.424255 
	C307.910126,645.208313 304.985291,646.136475 305.017120,642.759277 
	C305.044708,639.837830 307.781403,640.183105 309.586548,640.183044 
	C318.282745,640.182983 325.423828,636.856934 331.306824,630.584595 
	C335.486328,626.128479 337.543671,620.779907 337.735138,614.741089 
	C337.888184,609.912842 337.832031,605.077271 337.831421,600.244995 
	C337.821808,525.422180 337.827332,450.599365 337.774353,375.776550 
	C337.763367,360.235840 329.187988,349.494049 314.854523,346.826141 
	C312.907379,346.463745 310.880157,346.536102 308.890961,346.393799 
	C307.084412,346.264587 304.967438,346.507172 304.907074,343.795990 
	C304.841461,340.850586 307.077484,340.920410 309.091614,340.781097 
	C309.755646,340.735168 310.424164,340.743713 311.090607,340.744049 
	C349.585114,340.762665 388.090210,340.244629 426.570282,341.000000 
	C450.638672,341.472382 472.401733,349.115082 488.986572,367.847473 
	C500.726257,381.107361 506.420776,396.749298 507.306671,414.316895 
	C508.625366,440.466705 501.417236,463.705231 483.813904,483.383118 
	C471.890869,496.711243 457.248810,504.855011 439.195404,506.310913 
	C438.535461,506.364136 437.868500,506.460449 437.234070,506.639954 
	C436.955811,506.718750 436.751190,507.057678 436.475372,507.313538 
	C436.224060,509.090179 437.708893,509.926605 438.656952,510.955048 
	C479.313599,555.059265 518.785034,600.260376 560.588684,643.300110 
	C577.774475,660.994019 595.638428,678.012451 615.771362,692.443359 
	C622.298096,697.121704 629.248413,701.009460 636.537170,704.376343 
	C640.000244,705.976135 641.526672,705.188049 642.668579,701.577515 
	C649.219360,680.864746 646.466858,661.239502 636.547485,642.200439 
	C629.203247,628.104065 618.212585,617.369934 605.970520,607.684998 
	C580.489990,587.526794 554.912537,567.489929 529.544312,547.191528 
	C510.096436,531.630310 502.638245,511.153900 505.386871,486.567017 
	C506.553497,476.131409 509.631439,466.427582 514.811890,456.942505 
M497.124725,629.632507 
	C490.065948,641.789001 486.016235,654.954468 484.723267,668.875305 
	C482.601440,691.720032 487.138855,712.526001 503.625519,729.768799 
	C535.681458,763.294983 585.611389,760.789734 616.626160,738.709778 
	C622.550659,734.492004 627.976013,729.701111 631.973206,723.014587 
	C630.729736,722.578918 630.140503,722.321350 629.525635,722.164368 
	C604.682068,715.823975 583.133667,703.525757 563.470825,687.163025 
	C542.078308,669.360901 524.162781,648.312805 505.552460,627.872620 
	C504.277893,626.472717 503.431000,624.388672 500.642273,624.227844 
	C499.642578,625.733032 498.554199,627.371765 497.124725,629.632507 
z"/>
<path fill="#FFFFFF" opacity="1.000000" stroke="none" 
	d="
M706.887024,342.943115 
	C706.041748,346.531464 705.250854,349.729645 704.340210,353.412140 
	C707.091919,353.124359 708.278381,351.162598 709.922791,350.024597 
	C711.324341,349.054718 712.718689,347.859619 714.230530,349.715271 
	C715.811462,351.655731 714.105408,352.781952 712.911621,353.817780 
	C709.647827,356.649780 706.305359,359.392426 702.955322,362.122955 
	C701.953308,362.939667 700.914612,364.027802 699.421326,363.127686 
	C697.901428,362.211609 697.778748,360.814728 698.108887,359.208588 
	C698.768555,355.999786 700.215271,352.910950 699.715088,349.091797 
	C697.088379,349.893250 695.581848,351.985992 693.589783,353.294617 
	C692.479919,354.023651 691.490234,354.253296 690.548584,353.069305 
	C689.689453,351.989166 689.643677,350.869873 690.674194,349.966919 
	C694.672485,346.463593 698.519592,342.733551 702.833069,339.664276 
	C705.429260,337.816986 706.627991,340.043518 706.887024,342.943115 
z"/>
<path fill="#FFFFFF" opacity="1.000000" stroke="none" 
	d="
M733.093384,376.645081 
	C735.718933,378.700317 737.201782,381.089630 737.855774,383.923737 
	C738.323120,385.948792 738.305908,388.344269 735.872498,388.799316 
	C733.756348,389.195038 733.677368,387.103119 733.351562,385.360565 
	C732.748840,382.136536 730.874573,379.798706 727.255859,379.932953 
	C724.538574,380.033752 722.402222,381.557190 721.587585,384.135529 
	C720.820923,386.562286 721.550842,388.741180 724.284058,389.951294 
	C726.244568,389.225342 724.050964,385.416687 727.159302,385.734772 
	C729.780457,386.002930 730.349487,388.480194 731.178894,390.363251 
	C732.332520,392.982727 729.974060,393.873810 728.316040,394.806183 
	C726.521423,395.815338 723.911499,398.478149 722.692749,396.656219 
	C720.215271,392.952576 716.032837,389.976074 716.326233,384.658722 
	C716.743103,377.106262 724.934265,372.940460 733.093384,376.645081 
z"/>
<path fill="#FFFFFF" opacity="1.000000" stroke="none" 
	d="
M442.200562,254.572403 
	C446.507141,256.603394 447.436127,259.772552 445.354126,263.303558 
	C443.326538,266.742310 445.028381,267.890747 447.836700,268.464325 
	C449.529022,268.809937 451.656219,268.705841 450.982513,271.044189 
	C450.343628,273.261505 447.900482,273.751648 446.002808,273.038666 
	C443.632629,272.148163 441.529572,270.546692 439.398071,269.302887 
	C437.384705,271.023285 441.128296,274.832184 437.162994,275.046570 
	C433.612457,275.238586 434.241028,271.684265 433.565125,269.512390 
	C432.828247,267.144501 432.314575,264.703125 431.781494,262.276642 
	C430.392761,255.955444 430.646027,255.629852 436.928772,254.468658 
	C438.576355,254.164124 440.183472,253.806473 442.200562,254.572403 
M439.777252,258.618225 
	C438.091187,258.289886 436.787811,258.634277 436.830231,260.662323 
	C436.853882,261.790466 437.662903,262.507141 438.792816,262.222290 
	C440.560547,261.776642 441.968170,260.978363 439.777252,258.618225 
z"/>
<path fill="#FFFFFF" opacity="1.000000" stroke="none" 
	d="
M752.329834,411.760559 
	C753.389160,414.828278 750.964478,415.072357 749.485779,415.719177 
	C746.780029,416.902710 746.861206,418.663666 747.724548,420.992157 
	C748.678406,423.564484 750.092834,424.305847 752.692078,423.128357 
	C754.215637,422.438171 756.257935,421.070435 757.345886,423.682129 
	C758.595459,426.681763 755.703369,426.865906 754.132874,427.598206 
	C750.371704,429.352081 746.487793,430.844086 742.645325,432.421875 
	C741.192078,433.018585 739.679932,433.471558 738.840149,431.563660 
	C738.033142,429.730316 739.201965,428.717834 740.667175,428.075500 
	C743.115173,427.002319 745.118225,426.033936 743.729675,422.580902 
	C742.257202,418.919281 740.028870,419.521637 737.358521,420.710510 
	C736.020508,421.306152 734.712891,421.345245 733.977539,419.783966 
	C733.532410,418.839020 733.385254,417.563660 734.428711,417.112427 
	C739.991882,414.707001 745.138123,411.137054 751.461670,410.808929 
	C751.687195,410.797241 751.935669,411.226837 752.329834,411.760559 
z"/>
<path fill="#FFFFFF" opacity="1.000000" stroke="none" 
	d="
M522.597534,266.776367 
	C522.437927,263.898590 523.559143,260.785950 519.360840,260.380829 
	C515.764465,260.033813 514.725342,262.211334 514.375366,265.169159 
	C514.211670,266.552795 513.970154,267.929047 512.138855,267.835510 
	C510.165924,267.734650 509.683868,266.303345 509.787354,264.682037 
	C510.093903,259.879547 510.456818,255.079788 510.879852,250.286209 
	C511.002625,248.895065 511.571350,247.621536 513.292786,247.660706 
	C515.402832,247.708710 515.593750,249.218964 515.463257,250.826889 
	C515.254517,253.399826 515.537476,255.482544 518.841248,255.725479 
	C521.824219,255.944839 523.116821,254.409592 523.526123,251.759613 
	C523.793335,250.030273 524.034302,248.278183 526.440430,248.712570 
	C528.442932,249.074097 528.429810,250.736954 528.330261,252.236191 
	C528.021790,256.879456 527.844482,261.548248 527.188416,266.146118 
	C526.685364,269.672119 524.810303,269.726959 522.597534,266.776367 
z"/>
<path fill="#000000" opacity="1.000000" stroke="none" 
	d="
M472.695160,268.809265 
	C469.351898,269.517609 469.340057,267.622162 469.961700,265.688080 
	C471.583252,260.642944 473.202240,255.582672 475.172211,250.668747 
	C476.553040,247.224365 479.042328,247.108658 480.884583,250.397629 
	C483.474518,255.021378 485.723755,259.837769 488.057922,264.601532 
	C488.562012,265.630371 489.041931,266.889099 487.703583,267.690094 
	C486.592621,268.355042 485.563416,267.963043 484.519409,267.190033 
	C478.774170,262.936096 477.143372,263.163879 472.695160,268.809265 
z"/>
<path fill="#000000" opacity="1.000000" stroke="none" 
	d="
M658.518860,297.317108 
	C660.291626,298.468872 661.400818,299.724182 661.916809,301.355286 
	C662.437561,303.001099 662.651367,304.916748 660.736572,305.689026 
	C658.980591,306.397217 658.088196,305.040955 657.600281,303.420959 
	C657.137146,301.883209 656.352234,300.655304 654.138855,301.371887 
	C653.165649,303.781677 655.197083,305.283752 656.158875,307.022430 
	C657.729736,309.862244 657.832397,312.440369 655.264099,314.667694 
	C652.129456,317.386169 649.033447,316.300598 646.165466,314.184509 
	C643.599976,312.291656 641.997375,309.833466 642.932861,306.436096 
	C643.220215,305.392395 643.959534,304.683868 645.140930,304.880463 
	C646.443726,305.097168 647.149963,305.946381 647.296448,307.268494 
	C647.566528,309.706116 648.660767,311.250061 652.093628,311.187286 
	C651.542908,306.348114 644.070190,302.077057 650.666870,297.153351 
	C653.083557,295.349609 655.673401,295.697266 658.518860,297.317108 
z"/>
<path fill="#000000" opacity="1.000000" stroke="none" 
	d="
M560.653870,275.053894 
	C551.892334,274.056885 549.428772,270.759094 551.114258,262.797821 
	C551.664001,260.201416 552.269287,257.613159 552.967102,255.053345 
	C553.278015,253.913086 553.903320,252.830765 555.408203,253.111145 
	C556.964539,253.401108 557.729553,254.384552 557.442871,255.968231 
	C557.000061,258.414703 556.586914,260.876770 555.945435,263.274475 
	C555.152771,266.237091 554.697144,269.325562 558.414124,270.176544 
	C562.148743,271.031647 562.977417,267.816040 563.727295,265.005920 
	C564.368713,262.601959 565.037109,260.205170 565.690063,257.804260 
	C566.048706,256.485748 566.863281,255.798203 568.252563,256.101044 
	C569.313843,256.332397 569.896729,257.035645 570.119873,258.147919 
	C571.167664,263.371368 566.079712,272.854034 560.653870,275.053894 
z"/>
<path fill="#000000" opacity="1.000000" stroke="none" 
	d="
M597.907471,265.755188 
	C598.994263,270.092194 596.406677,273.271332 595.140808,276.732758 
	C594.008057,279.830261 594.053406,281.719269 597.539856,282.762756 
	C599.057007,283.216827 601.091553,283.816833 600.230103,286.081543 
	C599.401367,288.260406 597.555054,287.407654 595.977417,286.939270 
	C595.661865,286.845612 595.368958,286.678314 595.057800,286.566986 
	C587.289246,283.787048 587.282471,283.785065 590.131897,276.186462 
	C591.235107,273.244446 592.332764,270.298981 593.515564,267.388672 
	C594.270935,265.529846 595.359131,264.130646 597.907471,265.755188 
z"/>
<path fill="#000000" opacity="1.000000" stroke="none" 
	d="
M671.696167,334.203430 
	C669.651794,332.499481 670.452393,331.064575 671.635681,329.738159 
	C674.725403,326.274811 677.843689,322.836487 680.989014,319.423676 
	C682.042664,318.280365 683.238464,317.308350 684.822937,318.650055 
	C686.399048,319.984680 685.840393,321.399078 684.651672,322.483856 
	C680.370972,326.390411 677.998474,332.333771 671.696167,334.203430 
z"/>
</svg>